

<svg width="22" height="24" fill="none" xmlns="http://www.w3.org/2000/svg">
  <path d="M13.9 11.2 9 12.8l-4.2 1.8-1.2.3a25.4 25.4 0 0 1-1.9 1.7l-1 1-.6 1.1a2 2 0 0 0 .2 1.8c.5.8 1.5 1.5 2.7 2 .5.3 1.5.6 2.3.8a30.6 30.6 0 0 0 5.5.7l.5-1c.8-1.6 1.4-3 1.7-4.4a21.4 21.4 0 0 0 .3-7l.6-.1-.1-.3Zm-1.1.7a11.8 11.8 0 0 1 .2 2 15.3 15.3 0 0 1-2.2-1.4h.2l1.8-.6Zm-2.5.8.4.1c.7.5 1.7 1 2.2 1.2l-.2.3a15.8 15.8 0 0 1-2.8 1.5v-.2c.3-1 .4-1.8.4-2.6v-.3Zm-.5.1a7.8 7.8 0 0 1-.4 3l-.7-.7a5 5 0 0 1-.8-1.5l2-.8Zm-2.3 1v.1A5 5 0 0 0 9 16l.2.1-.6.3a46 46 0 0 1-2.8.8 20.4 20.4 0 0 0 1.6-3.3Zm-.8.3-.3.7a28.1 28.1 0 0 1-1.5 2.4c-.2-.2-.3-.5-.3-.8v-1.1c0-.2 0-.2.2-.3l2-1Zm6.3.2v.2a19.7 19.7 0 0 1-.3 3h-.2a9.4 9.4 0 0 1-2.5-1.3l.3-.2a21.4 21.4 0 0 0 2.6-1.6h.1Zm-9 1.1V16c0 .5 0 .9.3 1.4l.1.3-3.2 1H.8c0-.5.5-1.2 1-1.8l1.2-1 1-.5Zm5.7 1 .2.1c.7.5 1.8.9 2.7 1.1h.1a40.2 40.2 0 0 1-4.4 1.8l.2-.2 1.1-2.6v-.2Zm-.6.2v.2a23 23 0 0 1-1.6 3l-.2-.2c-.8-.5-1.5-1-2-1.6l.3-.2a23.7 23.7 0 0 0 3.5-1.2Zm3.6 1.3a14.3 14.3 0 0 1-.8 2.8 10.5 10.5 0 0 1-.2.5A15.2 15.2 0 0 1 8 20l.5-.3a49 49 0 0 0 4-2Zm-8.3.2-1.1 1.6-.6.8c0 .2-.2.4-.3.5l-.2.3-.1-.2a6 6 0 0 1-.7-.7 3 3 0 0 1-.6-1.1V19a277.5 277.5 0 0 1 3.6-.9Zm.5.2v.2A6.8 6.8 0 0 0 7 20a222.3 222.3 0 0 1-4.4 1.5v-.2L4.2 19l.7-.8Zm2.9 2.1.3.1a11.6 11.6 0 0 0 3.4.8h.1l-1 .3A259.4 259.4 0 0 1 6 23s0-.2.2-.3l1.4-2 .3-.3Zm-.7 0-.7 1.1-.5.8-.2.4-.1.2a30.2 30.2 0 0 1-2.2-.9l-.6-.4 1-.3a89.8 89.8 0 0 0 3.3-.9Zm4.5 1a33.1 33.1 0 0 1-.8 2.4 73.6 73.6 0 0 1-4.3-.7L7 23a29.2 29.2 0 0 0 4.6-1.5Z" fill="url(#a)"/>
  <path d="M9 0a23 23 0 0 0-4.8 2 2 2 0 0 0-.5.6l.5.6 1.1.3 2.8.5 3.1.6v-.3h-.4V4a28.1 28.1 0 0 1-1.9-4Zm-.1.2v.2c0 .5.2 1 .4 1.6v.3a45.2 45.2 0 0 0-3.6-.6A16.3 16.3 0 0 1 8.9.2ZM5.4 1.8h.1c.8.3 2.7.7 3.8.8h.2l-.2.1a20 20 0 0 0-1.7 1H7.3l-.4-.4A152 152 0 0 0 5.6 2l-.2-.2Zm-.2.1.5.7.7.8a15.9 15.9 0 0 1-1.8-.3L4.4 3c0-.3.3-.7.8-1Zm4.4 1 .7 1.2h-.5a46 46 0 0 1-1.5-.4 7 7 0 0 0 1-.7l.3-.2Z" fill="url(#b)"/>
  <path d="M3.7 2.5v.3l.4.4L5.9 5a5 5 0 0 1 1.3 3.5c0 .9-.1 1.7-.6 2.6a17 17 0 0 1-4.8 5.5l.4-.1 1.3-.8a74.7 74.7 0 0 1 18.2-6h.3l-.8-1.1a8.7 8.7 0 0 0-2.6-2.2C17.2 5.7 15.3 5 13 4.6a62.6 62.6 0 0 0-6-1A41 41 0 0 1 4.4 3c-.3 0-.7-.2-.8-.5Zm1 1h.1a9.4 9.4 0 0 0 1 .3h.4a28.8 28.8 0 0 1 .5 1.9 7.6 7.6 0 0 0-2-2.3Zm1.8.4h.2a58.5 58.5 0 0 0 2.5.6 13.2 13.2 0 0 0-1.8 1.3l-.2.2v-.1a11.8 11.8 0 0 0-.7-2Zm3.1.6.1.4a6 6 0 0 1 .2 2h-.2a57.2 57.2 0 0 0-2.1-.7l.6-.6 1.4-1Zm.3 0a60.5 60.5 0 0 1 3.1.9 15.8 15.8 0 0 0-2.7 1.5v-.3a5 5 0 0 0-.4-2Zm3.8.8v.5A9.1 9.1 0 0 1 12.5 8h-.2l-1.5-.8h-.2a21.6 21.6 0 0 1 3-2Zm.3 0a23 23 0 0 1 3.5 1.2l.3.2h-.2a27 27 0 0 0-4.4 1.4v-.2a7.4 7.4 0 0 0 .8-2.5ZM7.4 7s.5 0 .8.2c.4 0 1.3.4 1.3.4l-.2.2a26.2 26.2 0 0 0-1.8 1.5V7Zm10.6 0-.4.6a36.1 36.1 0 0 1-2.2 2.8l-.2.3-.1-.1a7.5 7.5 0 0 0-1.9-1.9l1.1-.5A37.2 37.2 0 0 1 18 7Zm.3 0 .2.2a12.3 12.3 0 0 1 3 2.5h-.3a35.8 35.8 0 0 0-5.6 1l.3-.4A9.3 9.3 0 0 0 18.3 7Zm-8 .9a13 13 0 0 1 1.6.8l-.3.2a25.3 25.3 0 0 0-2.2 1 7.6 7.6 0 0 0 .8-2Zm-.6 0A7 7 0 0 1 9 10l-.2.4v.1l-.3-.2-.6-.5a1 1 0 0 1-.2 0 16.2 16.2 0 0 1 2.1-2Zm3 1.3h.1a13.8 13.8 0 0 1 2 1.6l-.3.1a53.3 53.3 0 0 0-4.8 1.6l.4-.3a16 16 0 0 0 2.4-2.9l.1-.1Zm-.8.1a25.3 25.3 0 0 1-2.6 3.2c0-.5-.1-1-.3-1.3 0-.2-.1-.2 0-.2a34.8 34.8 0 0 1 2.9-1.7Zm-4.6 1.2h.2l.6.5-.2.2a33.8 33.8 0 0 0-1.5 1 6.7 6.7 0 0 0 .9-1.7Zm1.2 1 .1.1c.3.3.4.7.4 1v.1l-.4.2a44.8 44.8 0 0 0-3 1.2c1.1-.8 2-1.6 2.7-2.5l.2-.2Zm-.6 0-.6.8A12 12 0 0 1 5 14.1h-.2l.4-.3.6-.8c.1-.2.2-.2.4-.3a37 37 0 0 1 1.7-1.2Z" fill="url(#c)"/>
  <defs>
    <linearGradient id="a" x1="3.7" y1="21.6" x2="5.4" y2="20.6" gradientUnits="userSpaceOnUse">
      <stop stop-color="#909CA9"/>
      <stop offset="1" stop-color="#EDEDEE"/>
    </linearGradient>
    <linearGradient id="b" x1="3.7" y1="2.3" x2="5.1" y2="2.3" gradientUnits="userSpaceOnUse">
      <stop stop-color="#939FAB"/>
      <stop offset="1" stop-color="#DCDEE1"/>
    </linearGradient>
    <radialGradient id="c" cx="0" cy="0" r="1" gradientUnits="userSpaceOnUse" gradientTransform="matrix(-1.78109 -.26755 .53524 -3.56305 10.8 8.7)">
      <stop stop-color="#EE352C"/>
      <stop offset="1" stop-color="#A91D22"/>
    </radialGradient>
  </defs>
</svg>
