<svg width="24" height="24" fill="none" xmlns="http://www.w3.org/2000/svg">
  <path fill-rule="evenodd" clip-rule="evenodd" d="M22.1 18.7c-1.3 0-2.3 0-3.2.4-.2.1-.6.1-.6.5l.2.5.9 1 1 .7 2 1 1 .8.6.4-.3-.6-.5-.4c-.4-.7-1-1.2-1.6-1.7-.6-.3-1.7-.8-2-1.4l1.2-.3c.5-.2 1-.1 1.6-.3l.8-.2V19l-.8-1-2.7-2-1.7-.8-.7-.3c-.3-.4-.4-.8-.6-1.3l-1.4-2.8c-.3-.6-.4-1.3-.8-1.8a16.4 16.4 0 0 0-6.3-6.1L6 2.2H4.9c-.3-.2-.5-.5-.8-.6-1-.6-3.3-1.9-4-.2-.4 1 .7 2.1 1 2.6.3.4.7.8.9 1.3l.2.8c.3.7.5 1.5.9 2.2.2.3.3.7.6 1l.4.5-.4 1.3c-.6 1.8-.3 4 .5 5.4.2.4.9 1.3 1.7 1 .7-.3.6-1.2.8-2l.1-.5.7 1.4c.5.8 1.4 1.6 2 2.2.5.2.8.7 1.3 1v-.1l-.4-.4a20.9 20.9 0 0 1-2.7-4L7 13.8c-.1-.2-.1-.5-.3-.6L6 14c-.3.8-.3 1.6-.4 2.5-.6 0-.8-.6-1-1a7 7 0 0 1-.1-4.4c0-.3.6-1.4.4-1.7-.1-.3-.4-.5-.6-.7l-.6-1-1-2.9-.8-1.3-1-1.2v-.7l.2-.2c.2-.2.8 0 1 .2.7.2 1.2.4 1.7.8l.7.5h.4c.5.1 1.1 0 1.6.2.9.3 1.6.7 2.3 1.1 2.2 1.4 4 3.3 5.1 5.6l.5 1 1.1 2.5c.3.7.7 1.5 1.2 2.1.2.4 1.2.5 1.6.7l1.1.5 1.7 1c.2.3 1 .7 1.1 1ZM5.5 4.6h-.7v.1l.5.7.4.8c.3-.2.4-.5.4-.9L5.9 5l-.4-.4Z" fill="#00678C"/>
</svg>
