<svg width="24" height="24" fill="none" xmlns="http://www.w3.org/2000/svg">
  <path d="M18.1 17.5c.2-1.3.1-1.5 1-1.3h.3c.7 0 1.7 0 2.2-.3 1.2-.6 2-1.5.8-1.3-2.7.6-3-.3-3-.3 3-4.3 4.1-9.7 3.1-11-2.8-3.6-7.7-1.9-7.8-1.9l-1.8-.1c-1.2 0-2.2.3-2.9.8 0 0-8.7-3.6-8.3 4.5.1 1.7 2.5 13 5.3 9.6L9 14c.6.4 1.2.5 1.8.5v.4c-.7.8-.4 1-1.9 1.3-1.5.3-.6.8 0 1 .6.1 2.2.4 3.3-1.1v.1c.3.3.2 1.7.3 2.7 0 1 0 2 .3 2.5.2.6.4 2 2.4 1.6 1.6-.3 2.8-.8 3-5.4" fill="#000"/>
  <path d="M18.1 17.5c.2-1.3.1-1.5 1-1.3h.3c.7 0 1.7 0 2.2-.3 1.2-.6 2-1.5.8-1.3-2.7.6-3-.3-3-.3 3-4.3 4.1-9.7 3.1-11-2.8-3.6-7.7-1.9-7.8-1.9l-1.8-.1c-1.2 0-2.2.3-2.9.8 0 0-8.7-3.6-8.3 4.5.1 1.7 2.5 13 5.3 9.6L9 14c.6.4 1.2.5 1.8.5v.4c-.7.8-.4 1-1.9 1.3-1.5.3-.6.8 0 1 .6.1 2.2.4 3.3-1.1v.1c.3.3.2 1.7.3 2.7 0 1 0 2 .3 2.5.2.6.4 2 2.4 1.6 1.6-.3 2.8-.8 3-5.4" stroke="#000" stroke-width="2"/>
  <path d="M22.4 14.6c-2.7.6-3-.3-3-.3 3-4.3 4.1-9.7 3.1-11-2.8-3.6-7.7-1.9-7.8-1.9l-1.8-.1c-1.2 0-2.2.3-2.9.8 0 0-8.7-3.6-8.3 4.5.1 1.7 2.5 13 5.3 9.6L9 14c.6.4 1.2.5 1.8.5v.4c-.7.8-.4 1-1.9 1.3-1.5.3-.6.8 0 1 .6.1 2.2.4 3.3-1.1v.1c.3.3.5 1.5.4 2.7 0 1.1 0 2 .2 2.5.2.6.4 2 2.4 1.6 1.6-.3 2.4-1.2 2.5-2.7.1-1 .3-1 .3-1.9l.1-.4c.2-1.4 0-1.9 1-1.7h.3c.7 0 1.7 0 2.2-.3 1.2-.6 2-1.5.8-1.3Z" fill="#336791"/>
  <path d="M12.3 15.4c0 2.7 0 5.4.3 6 .3.7.8 2 2.7 1.6 1.7-.4 2.2-1 2.5-2.5l.6-4.7M10 2S1.3-1.4 1.7 6.7c.1 1.7 2.5 13 5.3 9.6L9 14M14.7 1.4c-.3.1 4.9-1.9 7.8 1.9 1 1.3-.2 6.7-3 11" stroke="#fff" stroke-width=".7" stroke-linecap="round" stroke-linejoin="round"/>
  <path d="M19.5 14.2s.1 1 2.9.4c1.1-.3.4.7-.8 1.2-1 .5-3.2.6-3.2 0-.1-1.7 1.2-1.2 1-1.6 0-.3-.6-.7-1-1.6-.3-.8-4.4-6.8 1.2-6 .2 0-1.5-5.3-6.7-5.4-5.3 0-5.1 6.5-5.1 6.5" stroke="#fff" stroke-width=".7" stroke-linecap="round" stroke-linejoin="bevel"/>
  <path d="M10.9 14.8c-.8.8-.6 1-2 1.2-1.5.3-.6.9 0 1 .6.2 2.2.5 3.3-1 .3-.5 0-1.2-.5-1.4-.2-.1-.5-.2-.8.2v0Z" stroke="#fff" stroke-width=".7" stroke-linecap="round" stroke-linejoin="round"/>
  <path d="M10.8 14.8c0-.5.2-1 .4-1.8.4-1 1.2-2 .6-5.1-.6-2.4-4-.5-4-.2s.2 1.6 0 3.1c-.3 2 1.2 3.7 3 3.5" stroke="#fff" stroke-width=".7" stroke-linecap="round" stroke-linejoin="round"/>
  <path d="M10 7.6c0 .1.2.4.5.5.3 0 .5-.2.5-.3 0-.1-.2-.3-.5-.3l-.5.1Z" fill="#fff" stroke="#fff" stroke-width=".2"/>
  <path d="M18.6 7.4c0 .1-.2.4-.5.5-.3 0-.5-.2-.5-.3 0-.2.2-.3.4-.3l.6.1Z" fill="#fff" stroke="#fff" stroke-width=".1"/>
  <path d="M19.6 6.7 19.4 9c0 1.4.6 2.9-.4 4.4" stroke="#fff" stroke-width=".7" stroke-linecap="round" stroke-linejoin="round"/>
</svg>
