<svg width="1122" height="587" viewBox="0 0 1122 587" fill="none" xmlns="http://www.w3.org/2000/svg">
<path d="M344 193C339.2 158.6 350 136.333 356 129.5L378 116.5L401.5 108.5L544.5 86.5L660 93C672.5 103.333 698.3 132.5 701.5 166.5C704.7 200.5 686.833 239.333 677.5 254.5C671.667 249.333 657.6 238 648 234C638.4 230 618.667 226.333 610 225C610.333 224 611.7 221.6 614.5 220C617.3 218.4 641 213.667 652.5 211.5L628 208.5C630.167 206.667 635.5 201.9 639.5 197.5C643.5 193.1 649.5 184 652 180C655.833 183 667.25 181.5 671 174C677 162 671.167 153 667.5 150C668.333 147.667 670.4 141.8 672 137C673.6 132.2 672.667 120.667 672 115.5C672 121.9 664 138.5 660 146C657.667 144.333 647.5 145 642.5 151.5C635.257 160.916 639 171.333 642.5 176L596 191L628 148L584 176L600 122.5L567.5 164.5L566 110.5L545.5 160L529 112L526.5 164.5L499.5 117.5L514 171.5L474 146L499.5 184L445 163L490.5 197.5L451.5 200L459 210L430.5 202.5L457.5 225L429 229.5L477 234.5L483.5 240L446.5 265.5L491.5 252L456 295C460 293 467.2 289.9 464 293.5C460 298 453.5 317 450 313.5C447.2 310.7 440.167 296 437 289C443.4 281.4 444 269.5 443.5 264.5C443.5 247 423.743 245.97 423.5 245C419.5 229 425 202 425.5 200C425.9 198.4 438.667 197.667 445 197.5C440 194.667 430.4 187.4 432 181C433.6 174.6 444 158.667 449 151.5C453 153 462.7 154.3 469.5 147.5C476.3 140.7 475.333 129.333 474 124.5C477 119.5 506.5 109.5 493.5 110.5C483.1 111.3 468.833 114.833 463 116.5C459 115.667 447.4 114.6 441 121C434.6 127.4 435 137.667 436 142C435.5 142.333 433.7 143.9 430.5 147.5C427.3 151.1 421.167 163 418.5 168.5C415.167 163.5 407.7 151.6 404.5 144C401.3 136.4 396.833 120.833 395 114H390C389.5 116.667 389.5 125.5 393.5 139.5C397.5 153.5 408.5 176.667 413.5 186.5C403.9 212.9 406.167 238.167 408.5 247.5C401 246.5 389 261.5 393.5 273.5C404.018 301.547 420.5 289 423.5 296.5C425.9 302.5 439.833 320.333 446.5 328.5C439.167 326.5 419.6 318.2 400 301C375.5 279.5 350 236 344 193Z" fill="#1287B1"/>
<path d="M482.5 295C474.5 306.2 466.833 322 464 328.5C491 343.5 517.5 355 578.5 338.5C639.5 322 671 267 671.5 265.5C672 264 658.5 257.5 644.5 250.5C633.3 244.9 612.5 241.5 603.5 240.5C616.667 253 642.7 278.4 641.5 280C640.3 281.6 606.333 266.333 589.5 258.5C599.833 274 620.2 305.3 619 306.5C617.8 307.7 587.833 282.667 573 270C578.167 288.5 588.2 325.6 587 326C585.8 326.4 569.5 294.833 561.5 279C560.5 298 558.2 336.1 557 336.5C555.8 336.9 544.833 298.333 539.5 279C532.667 297 518.7 333 517.5 333C516.3 333 519.333 293.667 521 274C509.667 291.5 486.8 325.7 486 322.5C485.2 319.3 494 290.833 498.5 277C496.5 278.333 490.5 283.8 482.5 295Z" fill="#1287B1"/>
<path d="M27.5 318C59.8333 285 144.6 207.4 225 161C325.5 103 456.5 76.9999 460 73.4999C463.5 69.9999 467 53.9999 466.5 49.9999C466 45.9999 467.5 58.9999 470.5 57.4999C473.5 55.9999 472.5 34.9999 473.5 36.9999C474.5 38.9999 478 67.0001 489.5 66.5001C501 66.0001 512 25.0001 512.5 27.0001C513 29.0001 498.5 65.4999 513.5 66C525.5 66.4 543.5 41.8334 551 29.5C547.833 41.6667 543 66 549 66C555 66 578.167 31.6667 589 14.5C582.333 25.5 572.7 48.5001 587.5 52.5C602.3 56.4999 625 38.8333 634.5 29.5C624.5 39.8333 610.096 60 632.5 60C666 60 685.5 32.8333 698 19.5C694.333 29 686 49.2 682 54C677 60 665 73 686.5 69.5C708 66 738 28.5 745 17.5C752 6.5 716.5 68 716 72C715.5 76 712 88.5 739 69.5C760.6 54.3 788.667 23.5 800 10C793.5 21.6667 778.9 47.1 772.5 55.5C764.5 66 749 83 752 84C755 85 781 68.5 792 60C803 51.5 768 88 772.5 94.5C777 101 784.5 108 805 88C821.4 72 848.833 39.3333 860.5 25C851.333 42.3333 831.1 79.2 823.5 88C814 99 795 119.5 800 120.5C805 121.5 823.5 121 849 97.5C869.4 78.7 896.833 46.3333 908 32.5C901.167 48.5 885 83.1 875 93.5C862.5 106.5 838 135 876.5 107.5C907.3 85.5 935.333 47.3333 945.5 31C938.167 48.8333 921.1 87.6 911.5 100C899.5 115.5 870.5 145 904.5 122.5C938.5 100 968 56 973 48.5C978 41 995.5 13.5 978 48.5C960.5 83.5 933 120 925.5 128L925.23 128.288C917.654 136.363 903.664 151.275 959 132.5C1003.8 117.3 1039.67 81.8333 1052 66C1039.5 87 1010.2 132.3 993 145.5C971.5 162 1001.5 158.5 1023 149C1044.5 139.5 1082.5 104.5 1088 98C1093.5 91.5 1067 136.5 1039.5 156L1038.13 156.974C1010.97 176.242 980.178 198.083 931.5 203C925.5 203 957 219.5 961 224C965 228.5 946.5 217.5 937.5 217C928.5 216.5 964.5 230.5 967.5 235.5C970.5 240.5 930 216.5 927 222.5C924.6 227.3 966.333 248.167 987.5 258C974 254 949.8 247.4 961 253L993 269C975.167 262.667 938.7 252.2 935.5 261C932.3 269.8 981.5 307 1006.5 324.5C992.833 315 965.2 296.3 964 297.5C962.8 298.7 996.167 326 1013 339.5C985 318.5 927.4 277.8 921 283C915.033 287.849 935.553 304.956 948.757 314.542C949.805 315.247 950.749 315.928 951.5 316.5C950.633 315.892 949.714 315.236 948.757 314.542C944.921 311.96 939.699 309.057 937.5 310C934.7 311.2 949 324.5 956.5 331C941.333 319.833 904 297 876 295C841 292.5 857.5 308.5 871.5 316.5C882.7 322.9 909.167 342.5 921 351.5C907.5 342 879.9 323.8 877.5 327C875.609 329.522 898.847 346.492 918.245 359.853C923.556 363.306 928.436 366.628 932.5 369.5C928.402 366.78 923.462 363.447 918.245 359.853C894.585 344.472 862.36 326.487 855.5 334C847.1 343.2 899.667 414.167 927 448.5C895.333 413 829.9 343.4 821.5 349C813.1 354.6 834.333 387.667 846 403.5C832 385.833 800.7 352.4 787.5 360C774.3 367.6 827 459.5 855 504.5C832 470.833 780.5 401.4 758.5 393C731 382.5 731.5 389.5 733 393C734.5 396.5 756.5 444.5 762 465.5C767.5 486.5 770 516 768.5 530.5C767 545 771.5 500 753.5 463.5C735.5 427 706.5 399.5 683.5 408.5C665.1 415.7 689.5 473.167 704 501C689 477.167 654.7 428.2 637.5 423C616 416.5 627 426 637.5 446.5C648 467 660 503 664 524C667.2 540.8 665.333 565.333 664 575.5C664.333 556.5 660.4 511.3 642 482.5C619 446.5 600.5 431 598 434C595.5 437 603.5 458 600 491C597.2 517.4 581.833 559.667 574.5 577.5C577.167 567 581.9 546.1 579.5 546.5C577.1 546.9 572.167 559 570 565C574.833 544.667 584.3 497.9 583.5 473.5C582.5 443 577.5 427 555.5 429C522.5 432 536.167 482.333 537.5 508C532.667 482.5 519.4 431.6 505 432C490.6 432.4 442.333 520.833 420 565C426.5 550.333 438.7 520.7 435.5 519.5C432.3 518.3 419.833 540 414 551C430.5 512.333 462.1 434.4 456.5 432C450.9 429.6 431.5 469.333 422.5 489.5C423.333 483.333 424.5 470.9 422.5 470.5C420.663 470.133 418.967 474.518 418.186 477.301C418.123 477.538 418.061 477.771 418 478C418.054 477.783 418.116 477.548 418.186 477.301C422.038 462.718 428.242 433.723 422.5 432C407.5 427.5 367.5 470.667 343.5 491.5C353.833 480.333 373.7 457.3 370.5 454.5C367.3 451.7 350.167 470 342 479.5C356.833 460.833 384.9 422.2 378.5 417C370.5 410.5 347.5 402 326 417C308.8 429 286.167 455 277 466.5C285.833 455 302.7 431.5 299.5 429.5C296.3 427.5 281.833 445.333 275 454.5C286.333 437.833 308.211 401.97 301 396.5C286.5 385.5 232 432.5 201.5 454.5C212.333 444.667 233.3 424.2 230.5 421C227.7 417.8 204 437.333 192.5 447.5C209.667 430.5 242.9 395.2 238.5 390C233 383.5 185.5 379 136 382.5C86.5 386 38 367.5 28.5 361C20.9 355.8 17.6667 350.833 17 349C21.3333 352.833 34.1 361.1 50.5 363.5C71 366.5 22.5 352.5 18 345C13.5 337.5 41 363 118 359C195 355 190.5 354.5 252.5 355C314.5 355.5 333 395 483 399C633 403 731.5 362.5 791 321C850.5 279.5 882 221 887 213C892 205 902.5 205 898.5 200.5C894.5 196 792 143.5 743 130.5C694 117.5 602 91 543 94.5C484 98 358 116 259.5 173.5C180.7 219.5 72 297.667 27.5 331L40 315.5L27.5 318Z" fill="white"/>
</svg>
