<svg width="24" height="24" viewBox="0 0 24 24" fill="none" xmlns="http://www.w3.org/2000/svg">
<path d="M4.65005 10.025L6.60005 10.85C6.83338 10.3833 7.07505 9.93335 7.32505 9.50001C7.57505 9.06668 7.85005 8.63335 8.15005 8.20001L6.75005 7.92501L4.65005 10.025ZM8.20005 12.1L11.05 14.925C11.75 14.6583 12.5 14.25 13.3 13.7C14.1 13.15 14.85 12.525 15.55 11.825C16.7167 10.6583 17.6292 9.36251 18.2875 7.93751C18.9459 6.51251 19.2334 5.20001 19.15 4.00001C17.95 3.91668 16.6334 4.20418 15.2 4.86251C13.7667 5.52085 12.4667 6.43335 11.3 7.60001C10.6 8.30001 9.97505 9.05001 9.42505 9.85001C8.87505 10.65 8.46672 11.4 8.20005 12.1ZM12.65 10.475C12.2667 10.0917 12.075 9.62085 12.075 9.06251C12.075 8.50418 12.2667 8.03335 12.65 7.65001C13.0334 7.26668 13.5084 7.07501 14.075 7.07501C14.6417 7.07501 15.1167 7.26668 15.5 7.65001C15.8834 8.03335 16.075 8.50418 16.075 9.06251C16.075 9.62085 15.8834 10.0917 15.5 10.475C15.1167 10.8583 14.6417 11.05 14.075 11.05C13.5084 11.05 13.0334 10.8583 12.65 10.475ZM13.125 18.5L15.225 16.4L14.95 15C14.5167 15.3 14.0834 15.5708 13.65 15.8125C13.2167 16.0542 12.7667 16.2917 12.3 16.525L13.125 18.5ZM20.95 2.17501C21.2667 4.19168 21.0709 6.15418 20.3625 8.06251C19.6542 9.97085 18.4334 11.7917 16.7 13.525L17.2 16C17.2667 16.3333 17.25 16.6583 17.15 16.975C17.05 17.2917 16.8834 17.5667 16.65 17.8L12.45 22L10.35 17.075L6.07505 12.8L1.15005 10.7L5.32505 6.50001C5.55838 6.26668 5.83755 6.10001 6.16255 6.00001C6.48755 5.90001 6.81672 5.88335 7.15005 5.95001L9.62505 6.45001C11.3584 4.71668 13.175 3.49168 15.075 2.77501C16.975 2.05835 18.9334 1.85835 20.95 2.17501ZM2.92505 15.975C3.50838 15.3917 4.22088 15.0958 5.06255 15.0875C5.90422 15.0792 6.61672 15.3667 7.20005 15.95C7.78338 16.5333 8.07088 17.2458 8.06255 18.0875C8.05422 18.9292 7.75838 19.6417 7.17505 20.225C6.75838 20.6417 6.06255 21 5.08755 21.3C4.11255 21.6 2.76672 21.8667 1.05005 22.1C1.28338 20.3833 1.55005 19.0375 1.85005 18.0625C2.15005 17.0875 2.50838 16.3917 2.92505 15.975ZM4.35005 17.375C4.18338 17.5417 4.01672 17.8458 3.85005 18.2875C3.68338 18.7292 3.56672 19.175 3.50005 19.625C3.95005 19.5583 4.39588 19.4458 4.83755 19.2875C5.27922 19.1292 5.58338 18.9667 5.75005 18.8C5.95005 18.6 6.05838 18.3583 6.07505 18.075C6.09172 17.7917 6.00005 17.55 5.80005 17.35C5.60005 17.15 5.35838 17.0542 5.07505 17.0625C4.79172 17.0708 4.55005 17.175 4.35005 17.375Z" fill="black"/>
<path d="M6.375 2.375L7 1L7.625 2.375L9 3L7.625 3.625L7 5L6.375 3.625L5 3L6.375 2.375Z" fill="#A63BFB"/>
<path d="M22.0312 8.03125L22.5 7L22.9688 8.03125L24 8.5L22.9688 8.96875L22.5 10L22.0312 8.96875L21 8.5L22.0312 8.03125Z" fill="#A63BFB"/>
<path d="M19.0625 18.0625L20 16L20.9375 18.0625L23 19L20.9375 19.9375L20 22L19.0625 19.9375L17 19L19.0625 18.0625Z" fill="#A63BFB"/>
</svg>
