<!DOCTYPE svg PUBLIC "-//W3C//DTD SVG 1.1//EN" "http://www.w3.org/Graphics/SVG/1.1/DTD/svg11.dtd">
<!-- Uploaded to: SVG Repo, www.svgrepo.com, Transformed by: SVG Repo Mixer Tools -->
<svg fill="#394BC3" width="800px" height="800px" viewBox="0 0 32 32" version="1.1" xmlns="http://www.w3.org/2000/svg">
<g id="SVGRepo_bgCarrier" stroke-width="0"/>
<g id="SVGRepo_tracerCarrier" stroke-linecap="round" stroke-linejoin="round"/>
<g id="SVGRepo_iconCarrier"> <title>amazondynamodb</title> <path d="M4.875 10.15l0.508-0.897c0.553 0.317 1.193 0.591 1.865 0.79l0.064 0.016-0.29 0.991c-0.819-0.239-1.531-0.545-2.196-0.924l0.049 0.026zM7.021 19.418l0.291-0.992c-0.737-0.215-1.377-0.489-1.974-0.83l0.045 0.023-0.508 0.899c0.615 0.354 1.327 0.659 2.075 0.881l0.071 0.018zM4.875 26.886c0.615 0.353 1.327 0.659 2.075 0.88l0.072 0.018 0.291-0.991c-0.737-0.215-1.377-0.489-1.975-0.829l0.045 0.024zM28.77 9.632l-13.59 14.486c-0.093 0.099-0.225 0.16-0.37 0.16-0.092 0-0.179-0.025-0.254-0.068l0.002 0.001c-0.155-0.092-0.258-0.259-0.258-0.45 0-0.049 0.007-0.096 0.019-0.141l-0.001 0.004 3.162-11.763h-3.452c-0.185-0.001-0.346-0.1-0.434-0.247l-0.001-0.002c-0.046-0.076-0.074-0.169-0.074-0.267 0-0.088 0.022-0.171 0.060-0.243l-0.001 0.003 3.761-7.243c0.086-0.165 0.254-0.276 0.449-0.277h7.762c0.171 0 0.322 0.085 0.413 0.216l0.001 0.002c0.059 0.084 0.095 0.189 0.095 0.302 0 0.059-0.010 0.116-0.028 0.169l0.001-0.004-1.503 4.49h3.869c0.21 0.001 0.389 0.128 0.467 0.31l0.001 0.003c0.026 0.060 0.041 0.13 0.041 0.203 0 0.139-0.053 0.265-0.141 0.359l0-0zM27.211 9.791h-3.391c-0.171-0-0.322-0.085-0.413-0.214l-0.001-0.002c-0.060-0.084-0.096-0.189-0.096-0.302 0-0.059 0.010-0.117 0.028-0.17l-0.001 0.004 1.503-4.489h-6.743l-3.223 6.207h3.273c0 0 0 0 0.001 0 0.166 0 0.312 0.080 0.404 0.203l0.001 0.001c0.065 0.086 0.104 0.195 0.104 0.313 0 0.049-0.007 0.096-0.019 0.14l0.001-0.004-2.807 10.439zM21.749 18.421l1.020-0.006v0.006c-0.038 0.732-0.393 1.374-0.931 1.794l-0.005 0.004c0.544 0.427 0.901 1.073 0.936 1.803l0 0.006q-0.003 2.415 0 4.83c0 2.347-4.229 4.118-9.839 4.118-5.58 0-9.791-1.752-9.834-4.081q-0.010-2.439-0.004-4.878c0.037-0.729 0.391-1.369 0.925-1.789l0.005-0.004c-0.536-0.426-0.889-1.063-0.931-1.784l-0-0.007v-4.857c0.039-0.73 0.393-1.369 0.927-1.791l0.005-0.004c-0.537-0.426-0.889-1.063-0.932-1.784l-0-0.007c0-1.693-0.002-3.413 0.002-4.863 0.020-2.34 4.24-4.102 9.836-4.102 0.114-0.002 0.249-0.004 0.384-0.004 2.413 0 4.721 0.447 6.846 1.263l-0.131-0.044-0.393 0.956c-1.873-0.722-4.041-1.14-6.306-1.14-0.141 0-0.281 0.002-0.421 0.005l0.021-0c-5.198 0-8.819 1.622-8.819 3.082 0 1.458 3.622 3.082 8.819 3.082 0.143 0 0.277 0 0.417-0.006l0.041 1.033c-0.152 0.007-0.306 0.007-0.458 0.007-0.304 0.023-0.658 0.036-1.015 0.036-2.898 0-5.597-0.85-7.862-2.314l0.057 0.034v2.97c0.006 0.562 0.562 1.052 1.025 1.364 1.929 1.049 4.224 1.668 6.662 1.675h0.002l-0.046 1.035c-2.507-0.027-4.865-0.638-6.952-1.703l0.089 0.041c-0.415 0.258-0.705 0.683-0.776 1.179l-0.001 0.009c0 1.458 3.622 3.082 8.819 3.082q0.769 0 1.501-0.052l0.075 1.031c-0.512 0.037-1.040 0.056-1.576 0.056-0.304 0.023-0.659 0.036-1.017 0.036-2.897 0-5.596-0.849-7.86-2.313l0.057 0.034v2.955c0.006 0.577 0.56 1.067 1.025 1.378 2.059 1.084 4.5 1.721 7.090 1.721 0.248 0 0.495-0.006 0.741-0.017l-0.035 0.001h0.227v1.036h-0.227c-0.194 0.008-0.421 0.012-0.649 0.012-2.691 0-5.234-0.631-7.491-1.753l0.098 0.044c-0.415 0.259-0.705 0.685-0.776 1.182l-0.001 0.009c0 1.458 3.622 3.082 8.819 3.082 5.19 0 8.808-1.62 8.818-3.076v-0.009c-0.071-0.503-0.36-0.927-0.767-1.179l-0.007-0.004c-0.228 0.138-0.499 0.279-0.78 0.401l-0.046 0.018-0.394-0.953c0.372-0.156 0.691-0.328 0.99-0.527l-0.021 0.013c0.469-0.317 1.027-0.812 1.027-1.373zM21.748 26.863v-2.959c-2.208 1.427-4.907 2.275-7.804 2.275-0.357 0-0.711-0.013-1.061-0.038l0.047 0.003c-0.304 0.023-0.658 0.036-1.015 0.036-2.898 0-5.597-0.849-7.862-2.312l0.057 0.035v2.956c0 1.458 3.623 3.082 8.82 3.082 5.191-0 8.81-1.622 8.818-3.077z"/> </g>
</svg>