<svg width="18" height="18" viewBox="0 0 18 18" fill="none" xmlns="http://www.w3.org/2000/svg">
<path d="M17.2762 7.38612C14.5762 7.38612 11.8762 7.38612 9.17267 7.38612C9.17267 8.50761 9.17267 9.62558 9.17267 10.7471C10.7371 10.7471 12.3016 10.7471 13.866 10.7471C13.6832 11.8193 13.0469 12.8037 12.1434 13.4049C11.5738 13.7881 10.9199 14.0342 10.2485 14.1537C9.56994 14.2697 8.87033 14.2838 8.19533 14.1467C7.50627 14.0096 6.85236 13.7213 6.27931 13.3205C5.36525 12.6771 4.66564 11.735 4.30705 10.6767C3.94142 9.60097 3.93791 8.39862 4.30705 7.32284C4.56369 6.56347 4.9926 5.86386 5.5551 5.29433C6.25119 4.58417 7.15471 4.0744 8.12502 3.86698C8.95822 3.68768 9.83713 3.72284 10.6528 3.96893C11.3453 4.17987 11.9852 4.55956 12.509 5.05878C13.0399 4.53144 13.5637 4.00409 14.0945 3.47675C14.3723 3.19198 14.6641 2.92128 14.9313 2.62948C14.1297 1.88768 13.1875 1.29003 12.161 0.913857C10.3117 0.231825 8.22345 0.217763 6.36017 0.864638C4.25783 1.58183 2.47189 3.14979 1.48049 5.13612C1.13596 5.81815 0.88283 6.5494 0.731658 7.30175C0.351971 9.16854 0.615643 11.1619 1.48049 12.867C2.03947 13.9779 2.84455 14.9658 3.81838 15.7428C4.73947 16.4775 5.81174 17.0189 6.94728 17.3213C8.38166 17.7045 9.90744 17.6975 11.3524 17.367C12.6567 17.0682 13.8906 16.4424 14.8785 15.5318C15.9192 14.5756 16.6645 13.3135 17.0582 11.9564C17.4836 10.4799 17.5434 8.90136 17.2762 7.38612Z" fill="white"/>
</svg>
