<svg width="18" height="18" viewBox="0 0 18 18" fill="none" xmlns="http://www.w3.org/2000/svg">
<path d="M16.576 13.6663C15.5947 13.6389 14.8448 13.731 14.203 14.0008C14.0214 14.0779 13.7304 14.0792 13.7006 14.308C13.8001 14.4125 13.8162 14.5704 13.8958 14.6985C14.0488 14.946 14.3075 15.2781 14.5376 15.4522C14.79 15.6425 15.05 15.8465 15.3199 16.0106C15.7999 16.3041 16.3372 16.4708 16.7998 16.7643C17.0722 16.9372 17.3433 17.1548 17.6095 17.3501C17.7413 17.4471 17.8296 17.5963 18 17.6573V17.6299C17.9105 17.5155 17.8868 17.3588 17.8047 17.2394C17.6841 17.1188 17.5622 16.9969 17.4416 16.8762C17.0871 16.4049 16.6369 15.992 16.1581 15.6475C15.7763 15.3739 14.9219 15.0032 14.7627 14.5593C14.7527 14.5505 14.744 14.5406 14.7353 14.5319C15.0064 14.502 15.3223 14.4038 15.5723 14.3366C15.9914 14.2235 16.367 14.2533 16.7998 14.1414C16.9951 14.0854 17.1904 14.0294 17.3856 13.9735V13.8615C17.1667 13.6364 17.01 13.3392 16.7712 13.1352C16.1457 12.6029 15.4641 12.0706 14.7614 11.6279C14.3722 11.3816 13.8896 11.2224 13.4767 11.0135C13.3374 10.9439 13.0937 10.9065 13.0016 10.7896C12.7852 10.5135 12.6671 10.1628 12.4992 9.84071C12.1485 9.16539 11.8052 8.42912 11.4943 7.71898C11.2828 7.23518 11.1436 6.75761 10.8799 6.32356C9.61257 4.23914 8.24825 2.98178 6.13398 1.74555C5.68377 1.48313 5.14277 1.37866 4.57067 1.2431C4.26348 1.22445 3.95629 1.20579 3.6491 1.18714C3.4613 1.10879 3.26604 0.879947 3.09068 0.768015C2.39048 0.325263 0.5946 -0.636107 0.0759823 0.628722C-0.251107 1.42717 0.565995 2.20572 0.857018 2.61116C1.06223 2.89472 1.32464 3.2131 1.4714 3.53273C1.56716 3.74291 1.58458 3.9531 1.66666 4.17447C1.86938 4.72169 2.04598 5.31618 2.3084 5.82111C2.44148 6.07731 2.58699 6.34595 2.75489 6.57479C2.85811 6.71532 3.03347 6.77626 3.06208 6.99391C2.8892 7.23518 2.8805 7.60953 2.78349 7.91548C2.34696 9.291 2.51112 11.0011 3.14665 12.0196C3.3419 12.3318 3.79958 13.0022 4.43138 12.746C4.98357 12.5209 4.8592 11.8244 5.01715 11.21C5.05322 11.0707 5.03083 10.9687 5.10048 10.8755V10.9028C5.26837 11.2374 5.43503 11.5732 5.60293 11.9077C5.97479 12.5059 6.63519 13.1327 7.1936 13.5544C7.48338 13.7732 7.71222 14.1526 8.08657 14.2807V14.2533H8.05921C7.98708 14.1401 7.87266 14.0929 7.78062 14.0021C7.56174 13.7882 7.31922 13.5208 7.13888 13.2758C6.63021 12.5855 6.18 11.8294 5.77083 11.0421C5.57557 10.6665 5.40518 10.2524 5.23977 9.86931C5.17635 9.72131 5.17759 9.49869 5.04451 9.42283C4.86418 9.70266 4.59803 9.92901 4.45873 10.2598C4.23487 10.7884 4.20627 11.4339 4.12419 12.1017C4.07568 12.1191 4.09682 12.1067 4.06822 12.1291C3.67894 12.0358 3.54214 11.6353 3.39787 11.2921C3.03223 10.424 2.96507 9.02485 3.28594 8.02617C3.36927 7.76748 3.74486 6.95287 3.59313 6.71408C3.521 6.47529 3.28096 6.33849 3.14665 6.15566C2.98124 5.93056 2.81458 5.63456 2.70016 5.37339C2.40168 4.69558 2.26114 3.93568 1.94649 3.25166C1.796 2.92457 1.54105 2.59375 1.33211 2.30272C1.10078 1.98061 0.840851 1.74307 0.66176 1.35379C0.598332 1.21574 0.511274 0.993122 0.605794 0.851342C0.635643 0.755578 0.677927 0.714536 0.773691 0.683444C0.93537 0.559076 1.38683 0.724486 1.55597 0.795376C2.0037 0.981929 2.37681 1.15853 2.75613 1.40976C2.93771 1.53039 3.12302 1.76421 3.34191 1.82888H3.59313C3.98613 1.91967 4.4264 1.85748 4.79329 1.96817C5.44249 2.16467 6.02329 2.47187 6.55186 2.80517C8.16119 3.82126 9.47701 5.26767 10.3762 6.99267C10.5205 7.27001 10.5839 7.53616 10.7108 7.82967C10.9682 8.42415 11.2916 9.0348 11.5478 9.61684C11.8027 10.1964 12.0527 10.7809 12.4134 11.2635C12.6036 11.5172 13.3362 11.6528 13.6695 11.7933C13.9033 11.8915 14.2851 11.9948 14.5065 12.1278C14.9293 12.3828 15.3385 12.6863 15.7352 12.9648C15.933 13.1041 16.5424 13.4101 16.5723 13.6626L16.576 13.6663Z" fill="#336791"/>
<path fill-rule="evenodd" clip-rule="evenodd" d="M4.09815 3.0277C3.89294 3.02397 3.74868 3.05009 3.5957 3.08366V3.11103H3.62306C3.72132 3.31126 3.89294 3.4406 4.01358 3.61348C4.10686 3.80873 4.20013 4.00399 4.29216 4.19925C4.30087 4.19055 4.31082 4.1806 4.31953 4.17189C4.4924 4.05001 4.572 3.85475 4.57075 3.55751C4.50111 3.48413 4.49116 3.39334 4.43146 3.30628C4.35186 3.19062 4.19765 3.12471 4.09691 3.0277H4.09815Z" fill="#336791"/>
</svg>
