<svg width="20" height="20" fill="none" xmlns="http://www.w3.org/2000/svg">
  <path d="M9.7.4C15.2.3 19.8 1.7 20 3.6c.2 1.8-4.1 3.3-9.6 3.4C4.8 7 .2 5.6 0 3.8-.2 2 4.1.4 9.7.4Z" fill="#CD342E"/>
  <path d="M0 8V4v.2c.2 1.8 4.8 3.3 10.4 3.2 5.2 0 9.4-1.5 9.6-3.2V8c-.2 1.8-4.4 3.2-9.7 3.3C4.8 11.2.2 9.8 0 7.9Z" fill="#CD342E"/>
  <path d="M0 12.2V8.3v.3c.2 1.8 4.8 3.2 10.4 3.2 5.2-.1 9.4-1.5 9.6-3.2v3.6c-.2 1.7-4.4 3.1-9.6 3.2C4.8 15.4.2 14 0 12.2Z" fill="#CD342E"/>
  <path d="M0 16.4V12.6v.2c.2 1.8 4.8 3.3 10.4 3.2 5.2 0 9.4-1.5 9.6-3.2v3.6c-.2 1.8-4.4 3.2-9.7 3.2C4.8 19.7.2 18.3 0 16.4Z" fill="#CD342E"/>
</svg>
