<svg width="20" height="21" viewBox="0 0 20 21" fill="none" xmlns="http://www.w3.org/2000/svg">
<path d="M14.8744 14.9185C15.0036 13.8454 14.9649 13.6881 15.7662 13.8619L15.9696 13.8797C16.5858 13.9077 17.3918 13.7809 17.8653 13.5615C18.8847 13.0897 19.4891 12.3021 18.484 12.509C16.1913 12.9808 16.0336 12.2064 16.0336 12.2064C18.4546 8.6236 19.4667 4.07553 18.5931 2.96225C16.2104 -0.0743641 12.0861 1.36158 12.0171 1.39886L11.9951 1.40291C11.5421 1.30916 11.0351 1.25315 10.4656 1.24396C9.42803 1.22696 8.64074 1.51526 8.04354 1.96705C8.04354 1.96705 0.685893 -1.05633 1.02818 5.76926C1.10098 7.22126 3.11489 16.7563 5.51686 13.8763C6.39476 12.8231 7.24318 11.9327 7.24318 11.9327C7.66446 12.2119 8.16885 12.3543 8.69786 12.3031L8.73875 12.2683C8.72594 12.3991 8.73159 12.527 8.75511 12.6784C8.13644 13.368 8.31823 13.489 7.08112 13.743C5.82952 14.0003 6.56484 14.4584 7.04479 14.5781C7.62681 14.7232 8.97323 14.9289 9.88323 13.6586L9.84699 13.8035C10.0897 13.9972 10.0733 15.1956 10.1077 16.0519C10.1422 16.9082 10.1997 17.7073 10.3747 18.1784C10.5497 18.6494 10.7562 19.8629 12.382 19.5153C13.7408 19.2249 14.7797 18.8069 14.8744 14.9185Z" fill="black" stroke="black" stroke-width="1.61468"/>
<path d="M18.4845 12.509C16.1915 12.9807 16.0338 12.2064 16.0338 12.2064C18.4549 8.62335 19.4669 4.07518 18.5935 2.96204C16.2109 -0.0743895 12.0863 1.36165 12.0175 1.39893L11.9953 1.40288C11.5423 1.30909 11.0353 1.25321 10.4655 1.24394C9.42797 1.22698 8.64096 1.51523 8.04376 1.96693C8.04376 1.96693 0.685978 -1.05631 1.02818 5.76924C1.10098 7.22132 3.11484 16.7564 5.5169 13.8763C6.39485 12.8232 7.24312 11.9328 7.24312 11.9328C7.66446 12.2119 8.16885 12.3543 8.69762 12.3032L8.7387 12.2684C8.72593 12.3991 8.73177 12.527 8.75515 12.6784C8.13635 13.368 8.31818 13.4891 7.08116 13.7431C5.82947 14.0004 6.56479 14.4584 7.04488 14.5781C7.6269 14.7233 8.97341 14.929 9.88322 13.6586L9.84694 13.8036C10.0894 13.9973 10.2597 15.0635 10.2311 16.03C10.2026 16.9966 10.1835 17.6601 10.3746 18.1784C10.5656 18.6967 10.756 19.8629 12.3822 19.5154C13.741 19.225 14.4452 18.4723 14.5431 17.2169C14.6126 16.3243 14.7699 16.4563 14.7799 15.6583L14.9061 15.2805C15.0516 14.0706 14.9292 13.6803 15.7663 13.8619L15.9698 13.8797C16.5859 13.9077 17.3923 13.7808 17.8657 13.5614C18.8848 13.0897 19.4893 12.302 18.4844 12.509H18.4845Z" fill="#336791"/>
<path d="M9.98295 13.2012C9.91982 15.4525 9.99881 17.7194 10.2197 18.2704C10.4407 18.8213 10.9136 19.893 12.5399 19.5455C13.8986 19.2549 14.3929 18.6927 14.6075 17.4517C14.7655 16.5387 15.0701 14.003 15.1091 13.4834" stroke="white" stroke-width="0.538228" stroke-linecap="round" stroke-linejoin="round"/>
<path d="M8.03208 1.91503C8.03208 1.91503 0.669284 -1.08644 1.01158 5.73911C1.08437 7.1912 3.09837 16.7265 5.50039 13.8464C6.37815 12.7931 7.172 11.9671 7.172 11.9671" stroke="white" stroke-width="0.538228" stroke-linecap="round" stroke-linejoin="round"/>
<path d="M12.0053 1.36967C11.7505 1.44937 16.101 -0.216588 18.5734 2.93446C19.4468 4.04765 18.4347 8.59581 16.0137 12.179" stroke="white" stroke-width="0.538228" stroke-linecap="round" stroke-linejoin="round"/>
<path d="M16.0218 12.1802C16.0218 12.1802 16.1796 12.9548 18.4726 12.4827C19.4773 12.2757 18.8727 13.0635 17.8537 13.5355C17.0175 13.9225 15.1426 14.0218 15.112 13.4869C15.0332 12.1067 16.0987 12.526 16.0218 12.1802ZM16.0218 12.1802C15.9523 11.8688 15.4758 11.5631 15.1606 10.8009C14.8854 10.1356 11.3864 5.03358 16.131 5.79132C16.3048 5.75544 14.8935 1.29012 10.4533 1.21751C6.01409 1.1449 6.15973 6.66258 6.15973 6.66258" stroke="white" stroke-width="0.538228" stroke-linecap="round" stroke-linejoin="bevel"/>
<path d="M8.74006 12.6478C8.12116 13.3373 8.30318 13.4584 7.06607 13.7125C5.81438 13.9698 6.54979 14.4278 7.02974 14.5475C7.61176 14.6927 8.95827 14.8984 9.86809 13.6277C10.1451 13.2409 9.86644 12.6236 9.48586 12.4662C9.30198 12.3902 9.0561 12.295 8.74006 12.6478Z" stroke="white" stroke-width="0.538228" stroke-linecap="round" stroke-linejoin="round"/>
<path d="M8.70106 12.6401C8.6387 12.2347 8.83463 11.7523 9.04459 11.1879C9.36012 10.341 10.0881 9.49405 9.50576 6.80775C9.07166 4.80594 6.16007 6.39115 6.15824 6.66258C6.15646 6.93392 6.28993 8.03837 6.1096 9.32451C5.8743 11.0028 7.18028 12.4222 8.68415 12.277" stroke="white" stroke-width="0.538228" stroke-linecap="round" stroke-linejoin="round"/>
<path d="M8.00506 6.62202C7.99193 6.71472 8.17522 6.9621 8.41422 6.99515C8.65281 7.02834 8.85703 6.83502 8.86997 6.74241C8.88292 6.64971 8.69985 6.54759 8.46076 6.5144C8.22204 6.48116 8.01773 6.52954 8.0051 6.62202H8.00506Z" fill="white" stroke="white" stroke-width="0.179408"/>
<path d="M15.2726 6.4345C15.2855 6.5272 15.1025 6.77458 14.8634 6.80764C14.6247 6.84083 14.4204 6.6475 14.4074 6.55489C14.3947 6.46219 14.5778 6.36007 14.8167 6.32688C15.0555 6.29369 15.2596 6.34202 15.2726 6.43454V6.4345Z" fill="white" stroke="white" stroke-width="0.0897039"/>
<path d="M16.1258 5.79102C16.1651 6.51819 15.9688 7.0135 15.944 7.7876C15.9074 8.91279 16.4819 10.2006 15.6162 11.4901" stroke="white" stroke-width="0.538228" stroke-linecap="round" stroke-linejoin="round"/>
</svg>
