<svg width="240" height="241" viewBox="0 0 240 241" fill="none" xmlns="http://www.w3.org/2000/svg">
<rect width="240" height="240" transform="translate(0 0.00390625)" fill="#A664DA"/>
<path d="M176.215 93.944H140.893C135.683 93.944 133.1 90.0144 135.131 85.2239L147.847 55.3771C150.739 48.5997 147.075 43.0586 139.701 43.0586H106.764C103.541 43.0586 99.8759 45.487 98.6175 48.4452L83.3188 84.363C80.7801 90.3015 84.0032 95.1581 90.4494 95.1581H124.226C127.957 95.1581 131.334 97.3878 132.791 100.81L147.847 136.131C149.9 140.944 147.295 144.874 142.085 144.874H63.3841C60.161 144.874 56.4964 147.302 55.238 150.26L40.5795 184.633C37.6875 191.41 41.3522 196.951 48.7256 196.951H125.33C128.553 196.951 132.217 194.523 133.476 191.565L150.518 151.563C151.953 148.207 155.221 146.044 158.863 146.044H192.132C198.821 146.044 202.132 141.01 199.505 134.873L184.361 99.3526C183.103 96.3944 179.438 93.9661 176.215 93.9661V93.944Z" fill="white"/>
</svg>
