<svg width="488" height="71" viewBox="0 0 488 71" fill="none" xmlns="http://www.w3.org/2000/svg">
<path d="M62.2477 23.7099H46.2477C43.8877 23.7099 42.7177 21.9299 43.6377 19.7599L49.3977 6.23993C50.7077 3.16993 49.0477 0.659912 45.7077 0.659912H30.7877C29.3277 0.659912 27.6677 1.75991 27.0977 3.09991L20.1677 19.3699C19.0177 22.0599 20.4777 24.2599 23.3977 24.2599H38.6977C40.3877 24.2599 41.9177 25.2699 42.5777 26.8199L49.3977 42.8199C50.3277 44.9999 49.1477 46.7799 46.7877 46.7799H11.1377C9.67767 46.7799 8.01767 47.8799 7.44767 49.2199L0.807672 64.7899C-0.502328 67.8599 1.15767 70.3699 4.49767 70.3699H39.1977C40.6577 70.3699 42.3177 69.2699 42.8877 67.9299L50.6077 49.8099C51.2577 48.2899 52.7377 47.3099 54.3877 47.3099H69.4577C72.4877 47.3099 73.9877 45.0299 72.7977 42.2499L65.9377 26.1599C65.3677 24.8199 63.7077 23.7199 62.2477 23.7199V23.7099Z" fill="white"/>
<path d="M131.96 46.8699L140.83 64.9899H133.76L125.6 48.0899H112.3V64.9899H106.07V18.7299H126.05C127.66 18.7299 129.26 18.9899 130.8 19.5699C133.31 20.3999 135.62 21.9499 137.22 23.9999C139.47 26.5699 140.82 29.9799 140.82 33.4499C140.88 36.7299 139.6 40.0699 137.54 42.5699C136.13 44.4299 134.2 45.9099 131.95 46.8699H131.96ZM112.3 42.1799H125.99C128.3 42.1799 130.94 40.9599 132.54 38.8999C133.76 37.3599 134.53 35.4299 134.47 33.4399C134.41 31.1899 133.57 29.0099 132.09 27.3999C130.55 25.7899 128.17 24.6399 125.99 24.6399H112.3V42.1799Z" fill="white"/>
<path d="M147.1 60.2399C144.14 56.5799 143.05 52.2099 143.05 47.6499C143.05 43.0899 144.27 38.5299 147.1 34.9899C150.06 31.3299 154.87 29.3399 159.89 29.3399C164.91 29.3399 169.66 31.1999 172.74 34.9899C175.7 38.7199 176.79 43.0899 176.79 47.6499C176.79 52.2099 175.63 56.5799 172.74 60.2399C169.59 64.0999 165.03 65.9599 159.89 65.9599C154.75 65.9599 150.19 64.0299 147.1 60.2399ZM170.17 47.6499C170.17 44.4399 169.59 41.1599 167.79 38.7799C165.99 36.3999 163.04 35.2499 159.89 35.2499C156.74 35.2499 153.79 36.4099 152.05 38.7799C150.25 41.1599 149.67 44.4299 149.67 47.6499C149.67 50.8699 150.25 54.0799 152.05 56.4499C153.79 58.8299 156.74 60.0499 159.89 60.0499C163.04 60.0499 165.99 58.8299 167.79 56.4499C169.59 54.0699 170.17 50.8599 170.17 47.6499Z" fill="white"/>
<path d="M206.58 40.5099C206.26 39.9299 205.94 39.3499 205.55 38.8399C203.75 36.3999 200.8 35.1799 197.71 35.2399C194.56 35.1799 191.67 36.3999 189.87 38.8399C188.07 41.2199 187.49 44.4299 187.43 47.6399C187.49 50.8499 188.07 54.0699 189.87 56.4399C191.67 58.8199 194.56 60.0399 197.71 60.0399C200.86 60.0399 203.75 58.8199 205.55 56.4399C205.94 55.9299 206.19 55.4099 206.51 54.8299L212.36 57.3399C211.85 58.3699 211.27 59.3299 210.5 60.2299C207.42 64.0199 202.66 66.0099 197.71 65.8799C192.7 66.0099 188.01 64.0199 184.92 60.2299C182.03 56.6299 180.87 52.1299 180.87 47.6399C180.87 43.1499 182.03 38.6399 184.92 34.9799C188.07 31.1199 192.76 29.3299 197.71 29.3299C202.66 29.3299 207.41 31.2599 210.5 34.9799C211.27 35.9399 211.91 36.9699 212.36 37.9999L206.58 40.5099Z" fill="white"/>
<path d="M223.36 64.9899H217.06V18.7899H223.36V43.5299H229.14L238.14 30.2899H245.27L234.54 46.0999L246.94 64.9899H239.87L229.14 48.6099H223.36V64.9899Z" fill="white"/>
<path d="M255.37 56.4499C257.17 58.8299 260.12 60.0499 263.21 60.0499C266.3 60.0499 269.25 58.8299 271.05 56.4499C271.44 55.8699 271.69 55.3599 272.01 54.8399L278.18 57.4699C277.6 58.4999 276.96 59.4599 276.25 60.3599C273.04 64.1499 268.22 66.0799 263.21 65.9499C258.2 65.8199 253.44 64.0199 250.42 60.2299C247.46 56.5699 246.31 52.0699 246.37 47.6399C246.5 43.0099 247.53 38.5799 250.42 34.9799C253.5 31.2499 258.19 29.3299 263.21 29.3299C268.23 29.3299 272.91 31.1899 276.06 34.9799C278.89 38.5799 280.04 43.1399 280.04 47.6399C280.04 48.2199 279.98 48.7999 279.98 49.3699H253.06C253.25 51.9999 253.89 54.5099 255.37 56.4399V56.4499ZM255.37 38.8399C254.21 40.3799 253.57 42.3099 253.25 44.2999H273.17C272.85 42.3099 272.21 40.3799 271.05 38.8399C269.25 36.3999 266.36 35.1799 263.21 35.2399C260.13 35.1799 257.17 36.3999 255.37 38.8399Z" fill="white"/>
<path d="M295.65 51.2399C295.65 54.0699 295.59 55.9299 296.42 57.2799C297.19 58.6899 298.73 59.5899 300.34 59.7899C302.14 59.9199 304.26 59.8499 306.06 59.5299V64.9899C303.62 65.6299 299.96 65.7599 297.58 65.2499C294.5 64.5399 292.12 63.0699 290.83 60.4999C289.54 57.9299 289.42 55.0999 289.42 51.6299V35.3699H282.05V30.2899H289.42V20.6499H295.65V30.2899H306.06V35.3699H295.65V51.2399Z" fill="white"/>
<path d="M380.61 18.7299V64.9899H375.08V61.3299C372.32 64.4099 368.33 65.9599 363.84 65.9599C359.35 65.9599 354.72 63.9699 351.82 60.3699C348.93 56.7099 347.9 52.2099 347.9 47.6499C347.9 43.0899 349.06 38.3999 351.82 34.8599C354.65 31.2599 359.15 29.3299 363.84 29.3299C367.82 29.3299 371.61 30.7399 374.38 33.1899V18.7299H380.61ZM375.08 47.6499C375.08 44.1199 374.31 40.6499 372.38 38.3299C370.65 36.0799 367.82 34.9899 364.8 34.9899C361.52 34.9899 358.7 36.1499 356.9 38.7199C355.17 40.9699 354.52 44.2499 354.52 47.6499C354.52 51.0499 355.1 54.2699 356.77 56.5199C358.57 59.0899 361.59 60.3099 364.61 60.3099C367.63 60.3099 370.52 59.1499 372.38 56.9699C374.31 54.6599 375.08 51.1199 375.08 47.6499Z" fill="white"/>
<path d="M435.71 44.2999L435.65 64.9899H429.42L429.48 44.2999C429.48 41.1499 429.16 39.3499 427.04 37.4899C425.82 36.2699 424.02 35.5599 422.29 35.5599C420.11 35.5599 417.99 36.4599 416.64 38.1299C415.16 39.9299 414.9 41.7299 414.9 43.7199V64.9899H408.67V44.2999C408.67 41.1499 408.35 39.3499 406.29 37.4899C405.01 36.2699 403.27 35.5599 401.47 35.5599C399.29 35.5599 397.23 36.4599 395.88 38.1299C394.34 39.9299 394.08 41.7299 394.08 43.7199V64.9899H387.85V30.2899H393.38V34.7199C395.69 31.7599 399.36 30.0299 403.21 30.0299C405.91 30.0299 408.74 31.0599 410.92 32.8599C412.01 33.7599 412.78 34.7199 413.43 35.8199L413.62 35.4299C415.87 32.0199 419.85 30.0299 423.97 30.0299C426.67 30.0299 429.56 31.0599 431.74 32.8599C435.21 35.7499 435.72 39.5399 435.72 44.2999H435.71Z" fill="white"/>
<path d="M449.25 18.4099V24.6399H443.02V18.4099H449.25ZM449.25 30.2999V64.9999H443.02V30.2999H449.25Z" fill="white"/>
<path d="M487.33 47.8399V65H481.03V47.8399C481.03 43.4099 480.52 39.6199 477.62 37.2999C476.01 36.0099 473.89 35.3699 471.39 35.4399C469.4 35.5699 467.53 36.21 466.12 37.37C464.58 38.66 463.61 40.5799 463.16 42.7699C462.84 44.1199 462.77 45.6599 462.77 47.3299V65H456.47V30.2999H462.06V33.7099L462.7 33.0699C465.33 30.6899 468.8 29.5999 472.02 29.4699C475.55 29.2799 479.28 30.37 481.98 32.62C486.61 36.35 487.38 41.6199 487.31 47.8499L487.33 47.8399Z" fill="white"/>
<path d="M312.96 36.7099L313.86 35.3599C316.94 31.2499 321.51 29.3799 326.9 29.3799C333.26 29.3799 338.47 31.6299 341.04 36.8299C342.07 38.9499 342.52 41.1999 342.52 43.1899V64.9699H336.99V58.3499C335.9 60.6599 333.58 62.7199 331.4 63.8099C328.7 65.2899 325.75 65.9899 322.79 65.8699C319.26 65.7399 315.72 63.9399 313.86 61.4399C312.38 59.2599 311.61 57.3899 311.61 54.8199C311.61 51.0899 313.6 47.8199 316.88 45.8899C320.61 43.7699 324.14 43.5099 329.41 42.7399L336.09 41.7799C335.83 39.9199 334.87 38.1799 333.33 37.0899C331.53 35.7399 329.15 35.1599 326.78 35.2299C323.82 35.2299 321.19 36.1899 319.45 38.3799C319.19 38.6999 318.87 39.0899 318.68 39.4699L312.96 36.7099ZM328.51 48.2799C323.37 49.1099 317.91 50.0099 317.84 54.4499C317.78 57.3399 320.28 59.9799 323.69 60.1699C328.06 60.3599 333.46 57.9899 335.19 53.5499C336.35 51.1699 336.35 49.1799 336.35 46.9999C334.36 47.3199 332.11 47.6399 328.51 48.2899V48.2799Z" fill="white"/>
</svg>
