<svg width="228" height="229" viewBox="0 0 228 229" fill="none" xmlns="http://www.w3.org/2000/svg">
<path d="M182.175 82.3995H139.338C133.019 82.3995 129.887 77.6339 132.35 71.8241L147.771 35.627C151.279 27.4076 146.834 20.6875 137.892 20.6875H97.9466C94.0377 20.6875 89.5933 23.6326 88.0673 27.2202L69.5135 70.7801C66.4346 77.9821 70.3435 83.872 78.1612 83.872H119.124C123.649 83.872 127.745 86.5761 129.512 90.7259L147.771 133.563C150.261 139.4 147.102 144.165 140.784 144.165H45.3373C41.4285 144.165 36.9841 147.11 35.4581 150.698L17.6807 192.384C14.1734 200.603 18.6178 207.323 27.56 207.323H120.463C124.372 207.323 128.816 204.378 130.342 200.79L151.011 152.278C152.751 148.208 156.714 145.584 161.131 145.584H201.478C209.591 145.584 213.606 139.48 210.42 132.037L192.054 88.959C190.528 85.3714 186.084 82.4263 182.175 82.4263V82.3995Z" fill="white"/>
</svg>
