<svg width="1440" height="886" viewBox="0 0 1440 886" fill="none" xmlns="http://www.w3.org/2000/svg">
<g clip-path="url(#clip0_38064_57134)">
<path d="M1768.49 467.033H1441.25L1516.32 291.511H1843.57L1768.49 467.033Z" stroke="#DADCDB" stroke-width="1.97216" stroke-miterlimit="10"/>
<path d="M1365.8 642.556H1036.96L1112.39 465.062H1441.25L1365.8 642.556Z" stroke="#DADCDB" stroke-width="1.97216" stroke-miterlimit="10"/>
<path d="M1441.76 823.994H1770.6L1695.17 642.556H1366.31L1441.76 823.994Z" stroke="#DADCDB" stroke-width="1.97216" stroke-miterlimit="10"/>
<path d="M934.898 465.061H1111.9L1036.47 289.539H859.467L934.898 465.061Z" stroke="#DADCDB" stroke-width="1.97216" stroke-miterlimit="10"/>
<path d="M1339.19 291.511H1516.2L1440.76 114.017H1263.76L1339.19 291.511Z" stroke="#DADCDB" stroke-width="1.97216" stroke-miterlimit="10"/>
<path d="M858.388 289.539H680L756.021 112.045H934.409L858.388 289.539Z" stroke="#DADCDB" stroke-width="1.97216" stroke-miterlimit="10"/>
<path d="M255.707 751.529H582.944L507.882 577.979H180.624L255.707 751.529Z" stroke="#DADCDB" stroke-width="1.97216" stroke-miterlimit="10"/>
<path d="M-175.848 576.006H1.15723L-74.2743 398.512H-251.279L-175.848 576.006Z" stroke="#DADCDB" stroke-width="1.97216" stroke-miterlimit="10"/>
<path d="M-27.3463 930.995H151.042L75.0207 753.501H-103.367L-27.3463 930.995Z" stroke="#DADCDB" stroke-width="1.97216" stroke-miterlimit="10"/>
<path d="M179.545 576.006H1.15723L77.1781 398.512H255.566L179.545 576.006Z" stroke="#DADCDB" stroke-width="1.97216" stroke-miterlimit="10"/>
</g>
<defs>
<clipPath id="clip0_38064_57134">
<rect width="1440" height="886" fill="white"/>
</clipPath>
</defs>
</svg>
