<svg width="1022" height="900" viewBox="0 0 1022 900" fill="none" xmlns="http://www.w3.org/2000/svg">
<path d="M1104.44 277.335H818.909C776.793 277.335 755.914 245.57 772.332 206.846L875.123 -34.4226C898.501 -89.2079 868.877 -134 809.272 -134H543.014C516.96 -134 487.336 -114.37 477.164 -90.4573L353.493 199.887C332.97 247.891 359.025 287.15 411.135 287.15H684.174C714.333 287.15 741.637 305.174 753.415 332.834L875.123 618.36C891.719 657.263 870.661 689.028 828.546 689.028H192.346C166.292 689.028 136.668 708.658 126.496 732.57L8.00018 1010.42C-15.3777 1065.21 14.2462 1110 73.8508 1110H693.097C719.151 1110 748.775 1090.37 758.947 1066.46L896.716 743.1C908.316 715.975 934.727 698.486 964.173 698.486H1233.11C1287.18 698.486 1313.95 657.799 1292.71 608.189L1170.29 321.057C1160.12 297.144 1130.49 277.514 1104.44 277.514V277.335Z" fill="#404040"/>
</svg>
