<svg width="124" height="338" viewBox="0 0 124 338" fill="none" xmlns="http://www.w3.org/2000/svg">
<path opacity="0.16" d="M208.609 11.2425C237.442 -14.7184 282.65 11.3828 274.584 49.3329L265.85 90.4228C262.242 107.395 269.973 124.759 285 133.435L321.38 154.439C354.98 173.838 344.126 224.899 305.541 228.955L263.763 233.346C246.507 235.159 232.382 247.878 228.774 264.85L220.04 305.94C211.974 343.89 160.057 349.347 144.277 313.903L127.191 275.527C120.133 259.676 103.672 250.172 86.416 251.986L44.6383 256.377C6.05285 260.432 -15.1797 212.743 13.6528 186.782L44.8707 158.673C57.765 147.063 61.7169 128.471 54.6597 112.62L37.5735 74.2437C21.793 38.7999 60.5868 3.86974 94.1869 23.2687L130.567 44.2727C145.593 52.9482 164.497 50.9613 177.391 39.3512L208.609 11.2425Z" fill="#66BCFF"/>
</svg>
